<svg xmlns="http://www.w3.org/2000/svg" width="96" height="384" viewBox="0 0 96 384" shape-rendering="crispEdges"><rect width="96" height="384" fill="none"/><g transform="translate(0 0)"><ellipse cx="16" cy="44" rx="8" ry="2" fill="#0b0d0a" opacity=".28"/><rect x="11" y="31" width="4" height="10" fill="#49372d"/><rect x="16" y="31" width="4" height="10" fill="#49372d"/><rect x="10" y="39" width="6" height="4" fill="#29251f"/><rect x="15" y="39" width="6" height="4" fill="#29251f"/><rect x="9" y="19" width="14" height="14" rx="2" fill="#6f513c" stroke="#171715"/><rect x="5" y="21" width="4" height="10" fill="#49372d"/><rect x="22" y="21" width="4" height="10" fill="#49372d"/><rect x="5" y="29" width="4" height="3" fill="#c98f68"/><rect x="22" y="29" width="4" height="3" fill="#c98f68"/><path d="M9 9l4-4h6l4 4v10H9z" fill="#26211e" stroke="#171715"/><rect x="11" y="10" width="10" height="8" fill="#c98f68"/><rect x="12" y="10" width="8" height="2" fill="#dba37d"/><rect x="13" y="13" width="2" height="2" fill="#171715"/><rect x="18" y="13" width="2" height="2" fill="#171715"/><rect x="13" y="17" width="6" height="1" fill="#b58c5d"/><rect x="11" y="26" width="10" height="2" fill="#b58c5d"/></g><g transform="translate(32 0)"><ellipse cx="16" cy="44" rx="8" ry="2" fill="#0b0d0a" opacity=".28"/><rect x="11" y="31" width="4" height="10" fill="#49372d"/><rect x="17" y="31" width="4" height="10" fill="#49372d"/><rect x="10" y="39" width="6" height="4" fill="#29251f"/><rect x="16" y="39" width="6" height="4" fill="#29251f"/><rect x="9" y="19" width="14" height="14" rx="2" fill="#6f513c" stroke="#171715"/><rect x="6" y="21" width="4" height="10" fill="#49372d"/><rect x="22" y="21" width="4" height="10" fill="#49372d"/><rect x="6" y="29" width="4" height="3" fill="#c98f68"/><rect x="22" y="29" width="4" height="3" fill="#c98f68"/><path d="M9 9l4-4h6l4 4v10H9z" fill="#26211e" stroke="#171715"/><rect x="11" y="10" width="10" height="8" fill="#c98f68"/><rect x="12" y="10" width="8" height="2" fill="#dba37d"/><rect x="13" y="13" width="2" height="2" fill="#171715"/><rect x="18" y="13" width="2" height="2" fill="#171715"/><rect x="13" y="17" width="6" height="1" fill="#b58c5d"/><rect x="11" y="26" width="10" height="2" fill="#b58c5d"/></g><g transform="translate(64 0)"><ellipse cx="16" cy="44" rx="8" ry="2" fill="#0b0d0a" opacity=".28"/><rect x="10" y="31" width="4" height="10" fill="#49372d"/><rect x="17" y="31" width="4" height="10" fill="#49372d"/><rect x="9" y="39" width="6" height="4" fill="#29251f"/><rect x="16" y="39" width="6" height="4" fill="#29251f"/><rect x="9" y="19" width="14" height="14" rx="2" fill="#6f513c" stroke="#171715"/><rect x="6" y="21" width="4" height="10" fill="#49372d"/><rect x="21" y="21" width="4" height="10" fill="#49372d"/><rect x="6" y="29" width="4" height="3" fill="#c98f68"/><rect x="21" y="29" width="4" height="3" fill="#c98f68"/><path d="M9 9l4-4h6l4 4v10H9z" fill="#26211e" stroke="#171715"/><rect x="11" y="10" width="10" height="8" fill="#c98f68"/><rect x="12" y="10" width="8" height="2" fill="#dba37d"/><rect x="13" y="13" width="2" height="2" fill="#171715"/><rect x="18" y="13" width="2" height="2" fill="#171715"/><rect x="13" y="17" width="6" height="1" fill="#b58c5d"/><rect x="11" y="26" width="10" height="2" fill="#b58c5d"/></g><g transform="translate(0 48)"><ellipse cx="16" cy="44" rx="8" ry="2" fill="#0b0d0a" opacity=".28"/><rect x="11" y="31" width="4" height="10" fill="#49372d"/><rect x="16" y="31" width="4" height="10" fill="#49372d"/><rect x="10" y="39" width="6" height="4" fill="#29251f"/><rect x="15" y="39" width="6" height="4" fill="#29251f"/><path d="M10 19h12l2 4-2 10H10z" fill="#6f513c" stroke="#171715"/><rect x="21" y="21" width="4" height="10" fill="#49372d"/><rect x="21" y="29" width="4" height="3" fill="#c98f68"/><path d="M10 9l4-4h6l4 5-2 9H10z" fill="#26211e" stroke="#171715"/><rect x="12" y="10" width="8" height="8" fill="#c98f68"/><rect x="17" y="13" width="2" height="2" fill="#171715"/><rect x="13" y="17" width="6" height="1" fill="#b58c5d"/><rect x="11" y="26" width="10" height="2" fill="#b58c5d"/></g><g transform="translate(32 48)"><ellipse cx="16" cy="44" rx="8" ry="2" fill="#0b0d0a" opacity=".28"/><rect x="11" y="31" width="4" height="10" fill="#49372d"/><rect x="17" y="31" width="4" height="10" fill="#49372d"/><rect x="10" y="39" width="6" height="4" fill="#29251f"/><rect x="16" y="39" width="6" height="4" fill="#29251f"/><path d="M10 19h12l2 4-2 10H10z" fill="#6f513c" stroke="#171715"/><rect x="22" y="21" width="4" height="10" fill="#49372d"/><rect x="22" y="29" width="4" height="3" fill="#c98f68"/><path d="M10 9l4-4h6l4 5-2 9H10z" fill="#26211e" stroke="#171715"/><rect x="12" y="10" width="8" height="8" fill="#c98f68"/><rect x="17" y="13" width="2" height="2" fill="#171715"/><rect x="13" y="17" width="6" height="1" fill="#b58c5d"/><rect x="11" y="26" width="10" height="2" fill="#b58c5d"/></g><g transform="translate(64 48)"><ellipse cx="16" cy="44" rx="8" ry="2" fill="#0b0d0a" opacity=".28"/><rect x="10" y="31" width="4" height="10" fill="#49372d"/><rect x="17" y="31" width="4" height="10" fill="#49372d"/><rect x="9" y="39" width="6" height="4" fill="#29251f"/><rect x="16" y="39" width="6" height="4" fill="#29251f"/><path d="M10 19h12l2 4-2 10H10z" fill="#6f513c" stroke="#171715"/><rect x="22" y="21" width="4" height="10" fill="#49372d"/><rect x="22" y="29" width="4" height="3" fill="#c98f68"/><path d="M10 9l4-4h6l4 5-2 9H10z" fill="#26211e" stroke="#171715"/><rect x="12" y="10" width="8" height="8" fill="#c98f68"/><rect x="17" y="13" width="2" height="2" fill="#171715"/><rect x="13" y="17" width="6" height="1" fill="#b58c5d"/><rect x="11" y="26" width="10" height="2" fill="#b58c5d"/></g><g transform="translate(0 96)"><ellipse cx="16" cy="44" rx="8" ry="2" fill="#0b0d0a" opacity=".28"/><rect x="11" y="31" width="4" height="10" fill="#49372d"/><rect x="16" y="31" width="4" height="10" fill="#49372d"/><rect x="10" y="39" width="6" height="4" fill="#29251f"/><rect x="15" y="39" width="6" height="4" fill="#29251f"/><path d="M10 23l2-4h12v14H12z" fill="#6f513c" stroke="#171715"/><rect x="6" y="21" width="4" height="10" fill="#49372d"/><rect x="6" y="29" width="4" height="3" fill="#c98f68"/><path d="M8 10l4-5h6l4 4v10H10z" fill="#26211e" stroke="#171715"/><rect x="12" y="10" width="8" height="8" fill="#c98f68"/><rect x="13" y="13" width="2" height="2" fill="#171715"/><rect x="13" y="17" width="6" height="1" fill="#b58c5d"/><rect x="11" y="26" width="10" height="2" fill="#b58c5d"/></g><g transform="translate(32 96)"><ellipse cx="16" cy="44" rx="8" ry="2" fill="#0b0d0a" opacity=".28"/><rect x="11" y="31" width="4" height="10" fill="#49372d"/><rect x="17" y="31" width="4" height="10" fill="#49372d"/><rect x="10" y="39" width="6" height="4" fill="#29251f"/><rect x="16" y="39" width="6" height="4" fill="#29251f"/><path d="M10 23l2-4h12v14H12z" fill="#6f513c" stroke="#171715"/><rect x="7" y="21" width="4" height="10" fill="#49372d"/><rect x="7" y="29" width="4" height="3" fill="#c98f68"/><path d="M8 10l4-5h6l4 4v10H10z" fill="#26211e" stroke="#171715"/><rect x="12" y="10" width="8" height="8" fill="#c98f68"/><rect x="13" y="13" width="2" height="2" fill="#171715"/><rect x="13" y="17" width="6" height="1" fill="#b58c5d"/><rect x="11" y="26" width="10" height="2" fill="#b58c5d"/></g><g transform="translate(64 96)"><ellipse cx="16" cy="44" rx="8" ry="2" fill="#0b0d0a" opacity=".28"/><rect x="10" y="31" width="4" height="10" fill="#49372d"/><rect x="17" y="31" width="4" height="10" fill="#49372d"/><rect x="9" y="39" width="6" height="4" fill="#29251f"/><rect x="16" y="39" width="6" height="4" fill="#29251f"/><path d="M10 23l2-4h12v14H12z" fill="#6f513c" stroke="#171715"/><rect x="7" y="21" width="4" height="10" fill="#49372d"/><rect x="7" y="29" width="4" height="3" fill="#c98f68"/><path d="M8 10l4-5h6l4 4v10H10z" fill="#26211e" stroke="#171715"/><rect x="12" y="10" width="8" height="8" fill="#c98f68"/><rect x="13" y="13" width="2" height="2" fill="#171715"/><rect x="13" y="17" width="6" height="1" fill="#b58c5d"/><rect x="11" y="26" width="10" height="2" fill="#b58c5d"/></g><g transform="translate(0 144)"><ellipse cx="16" cy="44" rx="8" ry="2" fill="#0b0d0a" opacity=".28"/><rect x="11" y="31" width="4" height="10" fill="#49372d"/><rect x="16" y="31" width="4" height="10" fill="#49372d"/><rect x="10" y="39" width="6" height="4" fill="#29251f"/><rect x="15" y="39" width="6" height="4" fill="#29251f"/><rect x="9" y="19" width="14" height="14" rx="2" fill="#6f513c" stroke="#171715"/><rect x="5" y="21" width="4" height="10" fill="#49372d"/><rect x="22" y="21" width="4" height="10" fill="#49372d"/><path d="M9 9l4-4h6l4 4v10H9z" fill="#26211e" stroke="#171715"/><rect x="11" y="10" width="10" height="8" fill="#26211e"/><rect x="13" y="17" width="6" height="1" fill="#b58c5d"/><rect x="11" y="26" width="10" height="2" fill="#b58c5d"/></g><g transform="translate(32 144)"><ellipse cx="16" cy="44" rx="8" ry="2" fill="#0b0d0a" opacity=".28"/><rect x="11" y="31" width="4" height="10" fill="#49372d"/><rect x="17" y="31" width="4" height="10" fill="#49372d"/><rect x="10" y="39" width="6" height="4" fill="#29251f"/><rect x="16" y="39" width="6" height="4" fill="#29251f"/><rect x="9" y="19" width="14" height="14" rx="2" fill="#6f513c" stroke="#171715"/><rect x="6" y="21" width="4" height="10" fill="#49372d"/><rect x="22" y="21" width="4" height="10" fill="#49372d"/><path d="M9 9l4-4h6l4 4v10H9z" fill="#26211e" stroke="#171715"/><rect x="11" y="10" width="10" height="8" fill="#26211e"/><rect x="13" y="17" width="6" height="1" fill="#b58c5d"/><rect x="11" y="26" width="10" height="2" fill="#b58c5d"/></g><g transform="translate(64 144)"><ellipse cx="16" cy="44" rx="8" ry="2" fill="#0b0d0a" opacity=".28"/><rect x="10" y="31" width="4" height="10" fill="#49372d"/><rect x="17" y="31" width="4" height="10" fill="#49372d"/><rect x="9" y="39" width="6" height="4" fill="#29251f"/><rect x="16" y="39" width="6" height="4" fill="#29251f"/><rect x="9" y="19" width="14" height="14" rx="2" fill="#6f513c" stroke="#171715"/><rect x="6" y="21" width="4" height="10" fill="#49372d"/><rect x="21" y="21" width="4" height="10" fill="#49372d"/><path d="M9 9l4-4h6l4 4v10H9z" fill="#26211e" stroke="#171715"/><rect x="11" y="10" width="10" height="8" fill="#26211e"/><rect x="13" y="17" width="6" height="1" fill="#b58c5d"/><rect x="11" y="26" width="10" height="2" fill="#b58c5d"/></g><g transform="translate(0 192)"><ellipse cx="16" cy="44" rx="8" ry="2" fill="#0b0d0a" opacity=".28"/><rect x="11" y="31" width="4" height="10" fill="#31412f"/><rect x="16" y="31" width="4" height="10" fill="#31412f"/><rect x="10" y="39" width="6" height="4" fill="#25251f"/><rect x="15" y="39" width="6" height="4" fill="#25251f"/><rect x="9" y="19" width="14" height="14" rx="2" fill="#4f6641" stroke="#151815"/><rect x="5" y="21" width="4" height="10" fill="#31412f"/><rect x="22" y="21" width="4" height="10" fill="#31412f"/><rect x="5" y="29" width="4" height="3" fill="#c88f68"/><rect x="22" y="29" width="4" height="3" fill="#c88f68"/><path d="M9 9l4-4h6l4 4v10H9z" fill="#243228" stroke="#151815"/><rect x="11" y="10" width="10" height="8" fill="#c88f68"/><rect x="12" y="10" width="8" height="2" fill="#d9a17c"/><rect x="13" y="13" width="2" height="2" fill="#151815"/><rect x="18" y="13" width="2" height="2" fill="#151815"/><rect x="13" y="17" width="6" height="1" fill="#c0aa69"/><rect x="11" y="26" width="10" height="2" fill="#c0aa69"/></g><g transform="translate(32 192)"><ellipse cx="16" cy="44" rx="8" ry="2" fill="#0b0d0a" opacity=".28"/><rect x="11" y="31" width="4" height="10" fill="#31412f"/><rect x="17" y="31" width="4" height="10" fill="#31412f"/><rect x="10" y="39" width="6" height="4" fill="#25251f"/><rect x="16" y="39" width="6" height="4" fill="#25251f"/><rect x="9" y="19" width="14" height="14" rx="2" fill="#4f6641" stroke="#151815"/><rect x="6" y="21" width="4" height="10" fill="#31412f"/><rect x="22" y="21" width="4" height="10" fill="#31412f"/><rect x="6" y="29" width="4" height="3" fill="#c88f68"/><rect x="22" y="29" width="4" height="3" fill="#c88f68"/><path d="M9 9l4-4h6l4 4v10H9z" fill="#243228" stroke="#151815"/><rect x="11" y="10" width="10" height="8" fill="#c88f68"/><rect x="12" y="10" width="8" height="2" fill="#d9a17c"/><rect x="13" y="13" width="2" height="2" fill="#151815"/><rect x="18" y="13" width="2" height="2" fill="#151815"/><rect x="13" y="17" width="6" height="1" fill="#c0aa69"/><rect x="11" y="26" width="10" height="2" fill="#c0aa69"/></g><g transform="translate(64 192)"><ellipse cx="16" cy="44" rx="8" ry="2" fill="#0b0d0a" opacity=".28"/><rect x="10" y="31" width="4" height="10" fill="#31412f"/><rect x="17" y="31" width="4" height="10" fill="#31412f"/><rect x="9" y="39" width="6" height="4" fill="#25251f"/><rect x="16" y="39" width="6" height="4" fill="#25251f"/><rect x="9" y="19" width="14" height="14" rx="2" fill="#4f6641" stroke="#151815"/><rect x="6" y="21" width="4" height="10" fill="#31412f"/><rect x="21" y="21" width="4" height="10" fill="#31412f"/><rect x="6" y="29" width="4" height="3" fill="#c88f68"/><rect x="21" y="29" width="4" height="3" fill="#c88f68"/><path d="M9 9l4-4h6l4 4v10H9z" fill="#243228" stroke="#151815"/><rect x="11" y="10" width="10" height="8" fill="#c88f68"/><rect x="12" y="10" width="8" height="2" fill="#d9a17c"/><rect x="13" y="13" width="2" height="2" fill="#151815"/><rect x="18" y="13" width="2" height="2" fill="#151815"/><rect x="13" y="17" width="6" height="1" fill="#c0aa69"/><rect x="11" y="26" width="10" height="2" fill="#c0aa69"/></g><g transform="translate(0 240)"><ellipse cx="16" cy="44" rx="8" ry="2" fill="#0b0d0a" opacity=".28"/><rect x="11" y="31" width="4" height="10" fill="#31412f"/><rect x="16" y="31" width="4" height="10" fill="#31412f"/><rect x="10" y="39" width="6" height="4" fill="#25251f"/><rect x="15" y="39" width="6" height="4" fill="#25251f"/><path d="M10 19h12l2 4-2 10H10z" fill="#4f6641" stroke="#151815"/><rect x="21" y="21" width="4" height="10" fill="#31412f"/><rect x="21" y="29" width="4" height="3" fill="#c88f68"/><path d="M10 9l4-4h6l4 5-2 9H10z" fill="#243228" stroke="#151815"/><rect x="12" y="10" width="8" height="8" fill="#c88f68"/><rect x="17" y="13" width="2" height="2" fill="#151815"/><rect x="13" y="17" width="6" height="1" fill="#c0aa69"/><rect x="11" y="26" width="10" height="2" fill="#c0aa69"/></g><g transform="translate(32 240)"><ellipse cx="16" cy="44" rx="8" ry="2" fill="#0b0d0a" opacity=".28"/><rect x="11" y="31" width="4" height="10" fill="#31412f"/><rect x="17" y="31" width="4" height="10" fill="#31412f"/><rect x="10" y="39" width="6" height="4" fill="#25251f"/><rect x="16" y="39" width="6" height="4" fill="#25251f"/><path d="M10 19h12l2 4-2 10H10z" fill="#4f6641" stroke="#151815"/><rect x="22" y="21" width="4" height="10" fill="#31412f"/><rect x="22" y="29" width="4" height="3" fill="#c88f68"/><path d="M10 9l4-4h6l4 5-2 9H10z" fill="#243228" stroke="#151815"/><rect x="12" y="10" width="8" height="8" fill="#c88f68"/><rect x="17" y="13" width="2" height="2" fill="#151815"/><rect x="13" y="17" width="6" height="1" fill="#c0aa69"/><rect x="11" y="26" width="10" height="2" fill="#c0aa69"/></g><g transform="translate(64 240)"><ellipse cx="16" cy="44" rx="8" ry="2" fill="#0b0d0a" opacity=".28"/><rect x="10" y="31" width="4" height="10" fill="#31412f"/><rect x="17" y="31" width="4" height="10" fill="#31412f"/><rect x="9" y="39" width="6" height="4" fill="#25251f"/><rect x="16" y="39" width="6" height="4" fill="#25251f"/><path d="M10 19h12l2 4-2 10H10z" fill="#4f6641" stroke="#151815"/><rect x="22" y="21" width="4" height="10" fill="#31412f"/><rect x="22" y="29" width="4" height="3" fill="#c88f68"/><path d="M10 9l4-4h6l4 5-2 9H10z" fill="#243228" stroke="#151815"/><rect x="12" y="10" width="8" height="8" fill="#c88f68"/><rect x="17" y="13" width="2" height="2" fill="#151815"/><rect x="13" y="17" width="6" height="1" fill="#c0aa69"/><rect x="11" y="26" width="10" height="2" fill="#c0aa69"/></g><g transform="translate(0 288)"><ellipse cx="16" cy="44" rx="8" ry="2" fill="#0b0d0a" opacity=".28"/><rect x="11" y="31" width="4" height="10" fill="#31412f"/><rect x="16" y="31" width="4" height="10" fill="#31412f"/><rect x="10" y="39" width="6" height="4" fill="#25251f"/><rect x="15" y="39" width="6" height="4" fill="#25251f"/><path d="M10 23l2-4h12v14H12z" fill="#4f6641" stroke="#151815"/><rect x="6" y="21" width="4" height="10" fill="#31412f"/><rect x="6" y="29" width="4" height="3" fill="#c88f68"/><path d="M8 10l4-5h6l4 4v10H10z" fill="#243228" stroke="#151815"/><rect x="12" y="10" width="8" height="8" fill="#c88f68"/><rect x="13" y="13" width="2" height="2" fill="#151815"/><rect x="13" y="17" width="6" height="1" fill="#c0aa69"/><rect x="11" y="26" width="10" height="2" fill="#c0aa69"/></g><g transform="translate(32 288)"><ellipse cx="16" cy="44" rx="8" ry="2" fill="#0b0d0a" opacity=".28"/><rect x="11" y="31" width="4" height="10" fill="#31412f"/><rect x="17" y="31" width="4" height="10" fill="#31412f"/><rect x="10" y="39" width="6" height="4" fill="#25251f"/><rect x="16" y="39" width="6" height="4" fill="#25251f"/><path d="M10 23l2-4h12v14H12z" fill="#4f6641" stroke="#151815"/><rect x="7" y="21" width="4" height="10" fill="#31412f"/><rect x="7" y="29" width="4" height="3" fill="#c88f68"/><path d="M8 10l4-5h6l4 4v10H10z" fill="#243228" stroke="#151815"/><rect x="12" y="10" width="8" height="8" fill="#c88f68"/><rect x="13" y="13" width="2" height="2" fill="#151815"/><rect x="13" y="17" width="6" height="1" fill="#c0aa69"/><rect x="11" y="26" width="10" height="2" fill="#c0aa69"/></g><g transform="translate(64 288)"><ellipse cx="16" cy="44" rx="8" ry="2" fill="#0b0d0a" opacity=".28"/><rect x="10" y="31" width="4" height="10" fill="#31412f"/><rect x="17" y="31" width="4" height="10" fill="#31412f"/><rect x="9" y="39" width="6" height="4" fill="#25251f"/><rect x="16" y="39" width="6" height="4" fill="#25251f"/><path d="M10 23l2-4h12v14H12z" fill="#4f6641" stroke="#151815"/><rect x="7" y="21" width="4" height="10" fill="#31412f"/><rect x="7" y="29" width="4" height="3" fill="#c88f68"/><path d="M8 10l4-5h6l4 4v10H10z" fill="#243228" stroke="#151815"/><rect x="12" y="10" width="8" height="8" fill="#c88f68"/><rect x="13" y="13" width="2" height="2" fill="#151815"/><rect x="13" y="17" width="6" height="1" fill="#c0aa69"/><rect x="11" y="26" width="10" height="2" fill="#c0aa69"/></g><g transform="translate(0 336)"><ellipse cx="16" cy="44" rx="8" ry="2" fill="#0b0d0a" opacity=".28"/><rect x="11" y="31" width="4" height="10" fill="#31412f"/><rect x="16" y="31" width="4" height="10" fill="#31412f"/><rect x="10" y="39" width="6" height="4" fill="#25251f"/><rect x="15" y="39" width="6" height="4" fill="#25251f"/><rect x="9" y="19" width="14" height="14" rx="2" fill="#4f6641" stroke="#151815"/><rect x="5" y="21" width="4" height="10" fill="#31412f"/><rect x="22" y="21" width="4" height="10" fill="#31412f"/><path d="M9 9l4-4h6l4 4v10H9z" fill="#243228" stroke="#151815"/><rect x="11" y="10" width="10" height="8" fill="#243228"/><rect x="13" y="17" width="6" height="1" fill="#c0aa69"/><rect x="11" y="26" width="10" height="2" fill="#c0aa69"/></g><g transform="translate(32 336)"><ellipse cx="16" cy="44" rx="8" ry="2" fill="#0b0d0a" opacity=".28"/><rect x="11" y="31" width="4" height="10" fill="#31412f"/><rect x="17" y="31" width="4" height="10" fill="#31412f"/><rect x="10" y="39" width="6" height="4" fill="#25251f"/><rect x="16" y="39" width="6" height="4" fill="#25251f"/><rect x="9" y="19" width="14" height="14" rx="2" fill="#4f6641" stroke="#151815"/><rect x="6" y="21" width="4" height="10" fill="#31412f"/><rect x="22" y="21" width="4" height="10" fill="#31412f"/><path d="M9 9l4-4h6l4 4v10H9z" fill="#243228" stroke="#151815"/><rect x="11" y="10" width="10" height="8" fill="#243228"/><rect x="13" y="17" width="6" height="1" fill="#c0aa69"/><rect x="11" y="26" width="10" height="2" fill="#c0aa69"/></g><g transform="translate(64 336)"><ellipse cx="16" cy="44" rx="8" ry="2" fill="#0b0d0a" opacity=".28"/><rect x="10" y="31" width="4" height="10" fill="#31412f"/><rect x="17" y="31" width="4" height="10" fill="#31412f"/><rect x="9" y="39" width="6" height="4" fill="#25251f"/><rect x="16" y="39" width="6" height="4" fill="#25251f"/><rect x="9" y="19" width="14" height="14" rx="2" fill="#4f6641" stroke="#151815"/><rect x="6" y="21" width="4" height="10" fill="#31412f"/><rect x="21" y="21" width="4" height="10" fill="#31412f"/><path d="M9 9l4-4h6l4 4v10H9z" fill="#243228" stroke="#151815"/><rect x="11" y="10" width="10" height="8" fill="#243228"/><rect x="13" y="17" width="6" height="1" fill="#c0aa69"/><rect x="11" y="26" width="10" height="2" fill="#c0aa69"/></g></svg>