<svg xmlns="http://www.w3.org/2000/svg" width="432" height="256" viewBox="0 0 432 256" shape-rendering="crispEdges"><title>Hoods V2.3 addon2 layer</title><g transform="translate(0 0)"><path d="M31 28l6 2 1 10-5 2-3-9z" fill="#8a653f" stroke="#171614"/><rect x="33" y="31" width="3" height="6" fill="#c39a59"/></g><g transform="translate(48 0)"><path d="M31 28l6 2 1 10-5 2-3-9z" fill="#8a653f" stroke="#171614"/><rect x="33" y="31" width="3" height="6" fill="#c39a59"/></g><g transform="translate(96 0)"><path d="M31 29l6 2 1 10-5 2-3-9z" fill="#8a653f" stroke="#171614"/><rect x="33" y="32" width="3" height="6" fill="#c39a59"/></g><g transform="translate(144 0)"><path d="M31 28l6 2 1 10-5 2-3-9z" fill="#8a653f" stroke="#171614"/><rect x="33" y="31" width="3" height="6" fill="#c39a59"/></g><g transform="translate(192 0)"><path d="M31 29l6 2 1 10-5 2-3-9z" fill="#8a653f" stroke="#171614"/><rect x="33" y="32" width="3" height="6" fill="#c39a59"/></g><g transform="translate(240 0)"><path d="M31 28l6 2 1 10-5 2-3-9z" fill="#8a653f" stroke="#171614"/><rect x="33" y="31" width="3" height="6" fill="#c39a59"/></g><g transform="translate(288 0)"><path d="M31 28l6 2 1 10-5 2-3-9z" fill="#8a653f" stroke="#171614"/><rect x="33" y="31" width="3" height="6" fill="#c39a59"/></g><g transform="translate(336 0)"><path d="M31 28l6 2 1 10-5 2-3-9z" fill="#8a653f" stroke="#171614"/><rect x="33" y="31" width="3" height="6" fill="#c39a59"/></g><g transform="translate(384 0)"><path d="M31 28l6 2 1 10-5 2-3-9z" fill="#8a653f" stroke="#171614"/><rect x="33" y="31" width="3" height="6" fill="#c39a59"/></g><g transform="translate(0 64)"><path d="M30 27l7 4-1 11-6 2-3-12z" fill="#8a653f" stroke="#171614"/><path d="M20 27l12 14" stroke="#c39a59" stroke-width="2"/></g><g transform="translate(48 64)"><path d="M30 27l7 4-1 11-6 2-3-12z" fill="#8a653f" stroke="#171614"/><path d="M20 27l12 14" stroke="#c39a59" stroke-width="2"/></g><g transform="translate(96 64)"><path d="M30 28l7 4-1 11-6 2-3-12z" fill="#8a653f" stroke="#171614"/><path d="M20 28l12 14" stroke="#c39a59" stroke-width="2"/></g><g transform="translate(144 64)"><path d="M30 27l7 4-1 11-6 2-3-12z" fill="#8a653f" stroke="#171614"/><path d="M20 27l12 14" stroke="#c39a59" stroke-width="2"/></g><g transform="translate(192 64)"><path d="M30 28l7 4-1 11-6 2-3-12z" fill="#8a653f" stroke="#171614"/><path d="M20 28l12 14" stroke="#c39a59" stroke-width="2"/></g><g transform="translate(240 64)"><path d="M30 27l7 4-1 11-6 2-3-12z" fill="#8a653f" stroke="#171614"/><path d="M20 27l12 14" stroke="#c39a59" stroke-width="2"/></g><g transform="translate(288 64)"><path d="M30 27l7 4-1 11-6 2-3-12z" fill="#8a653f" stroke="#171614"/><path d="M20 27l12 14" stroke="#c39a59" stroke-width="2"/></g><g transform="translate(336 64)"><path d="M30 27l7 4-1 11-6 2-3-12z" fill="#8a653f" stroke="#171614"/><path d="M20 27l12 14" stroke="#c39a59" stroke-width="2"/></g><g transform="translate(384 64)"><path d="M30 27l7 4-1 11-6 2-3-12z" fill="#8a653f" stroke="#171614"/><path d="M20 27l12 14" stroke="#c39a59" stroke-width="2"/></g><g transform="translate(0 128)"><path d="M18 27l-7 4 1 11 6 2 3-12z" fill="#8a653f" stroke="#171614"/><path d="M28 27L16 41" stroke="#c39a59" stroke-width="2"/></g><g transform="translate(48 128)"><path d="M18 27l-7 4 1 11 6 2 3-12z" fill="#8a653f" stroke="#171614"/><path d="M28 27L16 41" stroke="#c39a59" stroke-width="2"/></g><g transform="translate(96 128)"><path d="M18 28l-7 4 1 11 6 2 3-12z" fill="#8a653f" stroke="#171614"/><path d="M28 28L16 42" stroke="#c39a59" stroke-width="2"/></g><g transform="translate(144 128)"><path d="M18 27l-7 4 1 11 6 2 3-12z" fill="#8a653f" stroke="#171614"/><path d="M28 27L16 41" stroke="#c39a59" stroke-width="2"/></g><g transform="translate(192 128)"><path d="M18 28l-7 4 1 11 6 2 3-12z" fill="#8a653f" stroke="#171614"/><path d="M28 28L16 42" stroke="#c39a59" stroke-width="2"/></g><g transform="translate(240 128)"><path d="M18 27l-7 4 1 11 6 2 3-12z" fill="#8a653f" stroke="#171614"/><path d="M28 27L16 41" stroke="#c39a59" stroke-width="2"/></g><g transform="translate(288 128)"><path d="M18 27l-7 4 1 11 6 2 3-12z" fill="#8a653f" stroke="#171614"/><path d="M28 27L16 41" stroke="#c39a59" stroke-width="2"/></g><g transform="translate(336 128)"><path d="M18 27l-7 4 1 11 6 2 3-12z" fill="#8a653f" stroke="#171614"/><path d="M28 27L16 41" stroke="#c39a59" stroke-width="2"/></g><g transform="translate(384 128)"><path d="M18 27l-7 4 1 11 6 2 3-12z" fill="#8a653f" stroke="#171614"/><path d="M28 27L16 41" stroke="#c39a59" stroke-width="2"/></g><g transform="translate(0 192)"><path d="M31 28l6 2 1 10-5 2-3-9z" fill="#8a653f" stroke="#171614"/><rect x="33" y="31" width="3" height="6" fill="#c39a59"/></g><g transform="translate(48 192)"><path d="M31 28l6 2 1 10-5 2-3-9z" fill="#8a653f" stroke="#171614"/><rect x="33" y="31" width="3" height="6" fill="#c39a59"/></g><g transform="translate(96 192)"><path d="M31 29l6 2 1 10-5 2-3-9z" fill="#8a653f" stroke="#171614"/><rect x="33" y="32" width="3" height="6" fill="#c39a59"/></g><g transform="translate(144 192)"><path d="M31 28l6 2 1 10-5 2-3-9z" fill="#8a653f" stroke="#171614"/><rect x="33" y="31" width="3" height="6" fill="#c39a59"/></g><g transform="translate(192 192)"><path d="M31 29l6 2 1 10-5 2-3-9z" fill="#8a653f" stroke="#171614"/><rect x="33" y="32" width="3" height="6" fill="#c39a59"/></g><g transform="translate(240 192)"><path d="M31 28l6 2 1 10-5 2-3-9z" fill="#8a653f" stroke="#171614"/><rect x="33" y="31" width="3" height="6" fill="#c39a59"/></g><g transform="translate(288 192)"><path d="M31 28l6 2 1 10-5 2-3-9z" fill="#8a653f" stroke="#171614"/><rect x="33" y="31" width="3" height="6" fill="#c39a59"/></g><g transform="translate(336 192)"><path d="M31 28l6 2 1 10-5 2-3-9z" fill="#8a653f" stroke="#171614"/><rect x="33" y="31" width="3" height="6" fill="#c39a59"/></g><g transform="translate(384 192)"><path d="M31 28l6 2 1 10-5 2-3-9z" fill="#8a653f" stroke="#171614"/><rect x="33" y="31" width="3" height="6" fill="#c39a59"/></g></svg>
